<svg width="256" height="256" viewBox="0 0 256 256" fill="none" xmlns="http://www.w3.org/2000/svg">
<g filter="url(#filter0_b_28_2)">
<circle cx="128" cy="128" r="116" fill="url(#paint0_radial_28_2)"/>
</g>
<path d="M127.5 203.5C168.921 203.5 202.5 169.921 202.5 128.5C202.5 87.0786 168.921 53.5 127.5 53.5C86.0786 53.5 52.5 87.0786 52.5 128.5C52.5 169.921 86.0786 203.5 127.5 203.5Z" stroke="#6ECCE5" stroke-width="1.4286" stroke-miterlimit="10" stroke-linecap="round"/>
<path d="M127.5 180.85C156.412 180.85 179.85 157.412 179.85 128.5C179.85 99.5879 156.412 76.15 127.5 76.15C98.5879 76.15 75.15 99.5879 75.15 128.5C75.15 157.412 98.5879 180.85 127.5 180.85Z" stroke="#6ECCE5" stroke-width="1.4286" stroke-miterlimit="10" stroke-linecap="round" stroke-dasharray="4 4"/>
<path d="M35.15 166.29L127.7 112.94L220.15 166.51C205.05 202.68 169.34 228.11 127.7 228.11C85.96 228.1 50.2 202.58 35.15 166.29Z" fill="url(#paint1_linear_28_2)" fill-opacity="0.6"/>
<path d="M123 122L72.5 211.5" stroke="white" stroke-width="1.4286" stroke-miterlimit="10"/>
<path d="M133.5 122.5L184.5 210.5" stroke="white" stroke-width="1.4286" stroke-miterlimit="10"/>
<path d="M128 123V195" stroke="white" stroke-width="1.4286" stroke-miterlimit="10" stroke-linecap="round" stroke-dasharray="4 4"/>
<path d="M128.5 123.5C134.023 123.5 138.5 119.023 138.5 113.5C138.5 107.977 134.023 103.5 128.5 103.5C122.977 103.5 118.5 107.977 118.5 113.5C118.5 119.023 122.977 123.5 128.5 123.5Z" fill="#084E82" stroke="white" stroke-width="1.4286" stroke-miterlimit="10"/>
<defs>
<filter id="filter0_b_28_2" x="3" y="3" width="250" height="250" filterUnits="userSpaceOnUse" color-interpolation-filters="sRGB">
<feFlood flood-opacity="0" result="BackgroundImageFix"/>
<feGaussianBlur in="BackgroundImageFix" stdDeviation="4.5"/>
<feComposite in2="SourceAlpha" operator="in" result="effect1_backgroundBlur_28_2"/>
<feBlend mode="normal" in="SourceGraphic" in2="effect1_backgroundBlur_28_2" result="shape"/>
</filter>
<radialGradient id="paint0_radial_28_2" cx="0" cy="0" r="1" gradientUnits="userSpaceOnUse" gradientTransform="translate(128 128) rotate(90) scale(116)">
<stop stop-color="#6ECCE5"/>
<stop offset="1" stop-color="white" stop-opacity="0"/>
</radialGradient>
<linearGradient id="paint1_linear_28_2" x1="127.649" y1="228.1" x2="127.649" y2="112.934" gradientUnits="userSpaceOnUse">
<stop offset="5.32779e-09" stop-color="#3FA9F5"/>
<stop offset="1" stop-color="#0055DC"/>
</linearGradient>
</defs>
</svg>
