<svg width="28" height="52" viewBox="0 0 28 52" fill="none" xmlns="http://www.w3.org/2000/svg">
<path fill-rule="evenodd" clip-rule="evenodd" d="M0 14C0 6.26801 6.26801 0 14 0C21.732 0 28 6.26801 28 14C28 17.5758 26.6594 20.8384 24.4535 23.3128C22.6111 25.3794 21 27.832 21 30.6007V30.6007C21 32.6844 21.9747 34.616 22.9193 36.4734C23.6104 37.8326 24 39.3708 24 41C24 46.5228 19.5228 51 14 51C8.47715 51 4 46.5228 4 41C4 39.3708 4.38961 37.8326 5.08074 36.4735C6.02525 34.6161 7 32.6844 7 30.6007V30.6007C7 27.832 5.3889 25.3794 3.54649 23.3128C1.34055 20.8384 0 17.5758 0 14Z" fill="#C5EBF5"/>
<rect x="4" y="4" width="20" height="20" rx="10" fill="white"/>
<path d="M19.217 15.3329C19.3397 14.9028 19.4004 14.4573 19.3971 14.0101C19.3971 12.5749 18.8276 11.1984 17.8139 10.1836C16.8001 9.16875 15.4252 8.59862 13.9915 8.59862C13.545 8.59945 13.1006 8.66012 12.6701 8.779C10.8682 7.81697 9.36667 7.75684 8.55582 8.53849C7.74497 9.32015 7.83507 10.8835 8.73601 12.6873C8.66622 13.125 8.62609 13.5669 8.61588 14.0101C8.61588 15.4453 9.18541 16.8217 10.1992 17.8365C11.2129 18.8514 12.5879 19.4215 14.0215 19.4215C14.4681 19.4207 14.9125 19.36 15.3429 19.2411C17.9256 20.5639 19.1269 19.8424 19.4872 19.4215C20.238 18.6399 20.178 17.1968 19.217 15.3329ZM9.36667 9.4404C9.48679 9.32015 9.9673 9.01951 11.1085 9.4404C10.3608 9.82606 9.75192 10.4356 9.36667 11.1841C9.15645 10.3423 9.15645 9.68091 9.36667 9.4404ZM9.78711 14.431C10.0274 15.2126 12.55 17.738 13.5711 18.219C12.5991 18.1257 11.6898 17.6966 10.9994 17.0054C10.3089 16.3142 9.8803 15.404 9.78711 14.431ZM12.4299 15.5734C11.5213 14.6779 10.7338 13.6672 10.0874 12.567C10.3683 11.7557 10.8958 11.0527 11.596 10.5567C12.2961 10.0607 13.1338 9.7965 13.9915 9.80116C15.1066 9.80116 16.176 10.2446 16.9644 11.0339C17.7529 11.8232 18.1959 12.8938 18.1959 14.0101C18.192 14.8741 17.9257 15.7164 17.4322 16.4253C16.9387 17.1341 16.2414 17.6758 15.433 17.9785C14.3361 17.3047 13.3273 16.4968 12.4299 15.5734ZM18.5563 18.5797C18.316 18.8202 17.7154 18.8804 16.8144 18.5797C17.5355 18.1586 18.1356 17.5579 18.5563 16.836C18.8566 17.6778 18.8566 18.3392 18.5563 18.5797Z" fill="#0055DC"/>
<rect x="7" y="34" width="14" height="14" rx="7" fill="white"/>
<path d="M19.11 42.48C18.9891 41.5681 18.6258 40.7054 18.0578 39.9818C17.4899 39.2582 16.7382 38.7002 15.8811 38.3662C15.024 38.0322 14.093 37.9342 13.1852 38.0827C12.2774 38.2311 11.4261 38.6204 10.72 39.21C10.25 39.49 8 42.89 9.51 43.17C10.04 43.07 10.18 42.53 10.89 42.61C11.3284 42.6027 11.7571 42.7398 12.11 43C12.75 43.44 13.42 42.45 14.11 42.6C14.74 42.47 15.38 43.49 16 43C16.2946 42.7582 16.6696 42.6368 17.05 42.66C17.5549 42.6666 18.0422 42.8467 18.43 43.17C18.5257 43.2017 18.6284 43.2061 18.7264 43.1825C18.8244 43.1589 18.9138 43.1083 18.9846 43.0365C19.0554 42.9647 19.1046 42.8745 19.1268 42.7762C19.1489 42.6778 19.1431 42.5752 19.11 42.48ZM16.57 40C17.0598 40.4516 17.4454 41.0044 17.7 41.62C16.9707 41.4709 16.2121 41.6069 15.58 42C15.1176 41.713 14.5842 41.5609 14.04 41.5609C13.4958 41.5609 12.9624 41.713 12.5 42C11.8718 41.6159 11.1265 41.4704 10.4 41.59C11.17 39.08 14.7 38.32 16.57 40Z" fill="#0055DC"/>
</svg>
