<svg width="11" height="6" viewBox="0 0 11 6" fill="none" xmlns="http://www.w3.org/2000/svg">
<path d="M10.1142 4.46469C9.99338 3.5528 9.63003 2.69005 9.06209 1.96645C8.49414 1.24286 7.74242 0.684934 6.88535 0.350892C6.02828 0.0168493 5.09727 -0.0810703 4.18946 0.067349C3.28165 0.215768 2.4303 0.605088 1.72424 1.19469C1.25424 1.47469 -0.99576 4.87469 0.51424 5.15469C1.04424 5.05469 1.18424 4.51469 1.89424 4.59469C2.33266 4.58744 2.76132 4.72447 3.11424 4.98469C3.75424 5.42469 4.42424 4.43469 5.11424 4.58469C5.74424 4.45469 6.38424 5.47469 7.00424 4.98469C7.2988 4.74292 7.67388 4.62147 8.05424 4.64469C8.55914 4.65128 9.0464 4.83136 9.43424 5.15469C9.52993 5.18642 9.63259 5.19074 9.73061 5.16714C9.82863 5.14355 9.91808 5.09299 9.98884 5.02118C10.0596 4.94938 10.1089 4.85919 10.131 4.76084C10.1532 4.66249 10.1474 4.5599 10.1142 4.46469ZM7.57424 1.98469C8.06401 2.43629 8.4496 2.98908 8.70424 3.60469C7.97498 3.45555 7.2163 3.59154 6.58424 3.98469C6.12186 3.69767 5.58846 3.54557 5.04424 3.54557C4.50002 3.54557 3.96662 3.69767 3.50424 3.98469C2.87605 3.60062 2.13076 3.45511 1.40424 3.57469C2.17424 1.06469 5.70424 0.304688 7.57424 1.98469Z" fill="#4C4AF1"/>
</svg>
